<svg width="24" height="24" viewBox="0 0 24 24" fill="none" xmlns="http://www.w3.org/2000/svg">
<path d="M6.46401 15.2131C8.24386 15.2131 9.68672 13.7702 9.68672 11.9904C9.68672 10.2105 8.24386 8.76767 6.46401 8.76767C4.68416 8.76767 3.2413 10.2105 3.2413 11.9904C3.2413 13.7702 4.68416 15.2131 6.46401 15.2131Z" fill="#4AC7E9"/>
<path d="M6.46406 7.05305C7.58892 7.05643 8.67813 7.44804 9.54762 8.1617C9.6857 7.96145 9.83558 7.7696 9.99647 7.58718C10.5259 7.01782 11.1638 6.56001 11.8726 6.24064C12.6239 5.90657 13.4383 5.73818 14.2605 5.74691C14.9275 5.74356 15.5903 5.85126 16.222 6.06559C16.8364 6.27772 17.4158 6.58028 17.941 6.96328C18.0706 7.05801 18.23 7.10265 18.3899 7.08896C18.5482 7.04117 18.6838 6.93748 18.7714 6.7972L20.0102 4.68763C20.0552 4.61594 20.0823 4.53451 20.0894 4.45017C20.0964 4.36583 20.0831 4.28103 20.0506 4.20288C19.9783 4.06251 19.8658 3.94688 19.7274 3.87074C18.9358 3.33737 18.071 2.9216 17.16 2.63641C16.2251 2.34925 15.252 2.20547 14.274 2.21C13.3957 2.20678 12.5212 2.3246 11.6751 2.56011C10.8588 2.78794 10.0745 3.11822 9.34114 3.54308C8.61998 3.96476 7.95619 4.47769 7.36621 5.06915C6.77721 5.66625 6.26461 6.33415 5.84016 7.05754C5.83449 7.07334 5.82696 7.08841 5.81772 7.10242C6.03185 7.07183 6.24776 7.05533 6.46406 7.05305Z" fill="#1B1B1F"/>
<path d="M20.0685 19.2796L18.8252 17.1431C18.7385 17.0068 18.6041 16.9076 18.4482 16.8649C18.2874 16.8609 18.1297 16.9098 17.9993 17.004C17.4748 17.3908 16.8934 17.6936 16.2758 17.9017C15.6369 18.1182 14.9665 18.2274 14.2919 18.2249C13.4956 18.2367 12.7056 18.0832 11.9717 17.7742C11.2377 17.4652 10.5759 17.0073 10.0279 16.4295C9.8646 16.2475 9.7146 16.054 9.57903 15.8505C8.70993 16.5612 7.62263 16.9511 6.49993 16.9546C6.28187 16.9475 6.06452 16.9265 5.84912 16.8918L5.88501 16.9591C6.3097 17.6769 6.82237 18.3388 7.41109 18.9295C8.00221 19.5197 8.6658 20.0325 9.386 20.4556C10.5616 21.1392 11.8661 21.5718 13.2172 21.7263C14.5683 21.8808 15.9367 21.7538 17.2363 21.3533C18.1555 21.0652 19.0279 20.6448 19.8261 20.1055C19.9606 20.0319 20.0712 19.9213 20.1448 19.7868C20.1788 19.7032 20.1897 19.612 20.1762 19.5228C20.1628 19.4335 20.1256 19.3496 20.0685 19.2796Z" fill="#1B1B1F"/>
</svg>
