<svg width="25" height="24" viewBox="0 0 25 24" fill="none" xmlns="http://www.w3.org/2000/svg">
<path fill-rule="evenodd" clip-rule="evenodd" d="M16.7415 6.12242C16.7415 8.55698 14.7679 10.5306 12.3333 10.5306C9.89876 10.5306 7.92516 8.55698 7.92516 6.12242C7.92516 3.68786 9.89876 1.71426 12.3333 1.71426C14.7679 1.71426 16.7415 3.68786 16.7415 6.12242ZM18.2109 6.12242C18.2109 9.36851 15.5794 12 12.3333 12C9.08724 12 6.45577 9.36851 6.45577 6.12242C6.45577 2.87634 9.08724 0.244873 12.3333 0.244873C15.5794 0.244873 18.2109 2.87634 18.2109 6.12242ZM19.6803 19.102C19.6803 19.5665 19.5462 19.8911 19.3244 20.1593C19.0816 20.453 18.6699 20.7521 18.0182 21.0146C16.6887 21.5503 14.7129 21.7959 12.3333 21.7959C9.95374 21.7959 7.97794 21.5503 6.6484 21.0146C5.99677 20.7521 5.58508 20.453 5.34223 20.1593C5.12045 19.8911 4.98639 19.5665 4.98639 19.102C4.98639 18.6375 5.12045 18.313 5.34223 18.0447C5.58508 17.7511 5.99677 17.452 6.6484 17.1894C7.97794 16.6537 9.95374 16.4081 12.3333 16.4081C14.7129 16.4081 16.6887 16.6537 18.0182 17.1894C18.6699 17.452 19.0816 17.7511 19.3244 18.0447C19.5462 18.313 19.6803 18.6375 19.6803 19.102ZM21.1497 19.102C21.1497 22.2857 17.2024 23.2653 12.3333 23.2653C7.4642 23.2653 3.517 22.2857 3.517 19.102C3.517 15.9183 7.4642 14.9388 12.3333 14.9388C17.2024 14.9388 21.1497 15.9183 21.1497 19.102Z" fill="#65676E"/>
</svg>
