<svg width="40" height="40" viewBox="0 0 40 40" fill="none" xmlns="http://www.w3.org/2000/svg">
<circle cx="20" cy="20" r="20" fill="#EBEFFE"/>
<circle cx="20" cy="20" r="16" fill="#4A6FF4"/>
<path d="M28 13H24.83L23 11H17L15.17 13H12C10.9 13 10 13.9 10 15V27C10 28.1 10.9 29 12 29H28C29.1 29 30 28.1 30 27V15C30 13.9 29.1 13 28 13ZM28 27H12V15H16.05L17.88 13H22.12L23.95 15H28V27ZM20 16C17.24 16 15 18.24 15 21C15 23.76 17.24 26 20 26C22.76 26 25 23.76 25 21C25 18.24 22.76 16 20 16ZM20 24C18.35 24 17 22.65 17 21C17 19.35 18.35 18 20 18C21.65 18 23 19.35 23 21C23 22.65 21.65 24 20 24Z" fill="white"/>
</svg>
