<svg width="24" height="24" viewBox="0 0 24 24" fill="none" xmlns="http://www.w3.org/2000/svg">
<path fill-rule="evenodd" clip-rule="evenodd" d="M9.19244 9.8571C10.2931 9.85792 11.1875 10.7823 11.1875 11.9164C11.1875 13.0522 10.2923 13.9766 9.19244 13.9766C8.09255 13.9766 7.19813 13.0522 7.19813 11.9164C7.19813 10.7807 8.09255 9.8571 9.19244 9.8571ZM9.19942 12.7701C9.67015 12.7701 10.0518 12.3885 10.0518 11.9178C10.0518 11.447 9.67015 11.0654 9.19942 11.0654C8.72869 11.0654 8.34709 11.447 8.34709 11.9178C8.34709 12.3885 8.72869 12.7701 9.19942 12.7701Z" fill="#65676E"/>
<path d="M15.9694 13.9532C15.9591 13.9432 15.9541 13.939 15.9491 13.9348C15.5485 13.5951 15.0459 13.4397 14.5282 13.4866C14.0113 13.5392 13.5462 13.7941 13.2165 14.207C13.2165 14.207 11.4818 16.3823 11.4014 16.4802C11.1879 16.6973 10.8423 16.6932 10.6296 16.4711L9.86661 15.6717C9.17928 15.0056 8.09212 15.0401 7.4478 15.7466L6.23083 17.0731C6.00384 17.319 6.0134 17.7105 6.25313 17.9441C6.36861 18.0576 6.51595 18.1135 6.66409 18.1135C6.82179 18.1135 6.97949 18.0494 7.09736 17.9211L8.31593 16.5945C8.51265 16.3798 8.84078 16.3683 9.02476 16.5443C9.03751 16.5599 9.7782 17.3363 9.7782 17.3363C10.4496 18.0436 11.5527 18.0551 12.2361 17.3626C12.2663 17.3322 12.2895 17.3089 14.1395 14.9916C14.2662 14.8329 14.4446 14.735 14.6429 14.7144C14.838 14.6947 15.0363 14.7556 15.1598 14.86C15.2761 14.9768 16.908 16.7063 16.908 16.7063C17.1382 16.9498 17.5173 16.9572 17.753 16.7179C17.9896 16.4802 17.9935 16.0895 17.7634 15.8461C16.5802 14.5915 16.1832 14.1728 16.0396 14.0243L15.9951 13.9788L15.9848 13.9684L15.9694 13.9532Z" fill="#65676E"/>
<path fill-rule="evenodd" clip-rule="evenodd" d="M2.3518 4.81594C1.92907 5.07288 1.71489 5.5406 1.71485 6.03529C1.7147 8.27054 1.71427 14.7204 1.71428 17.0731C1.71428 20.4445 6.31935 20.5714 12 20.5714C17.6806 20.5714 22.2857 20.3773 22.2857 17.0731C22.2857 13.8863 22.2853 8.12018 22.2851 6.03732C22.2851 5.54269 22.071 5.07285 21.6483 4.8159C20.7565 4.27373 18.9432 3.42859 16.3046 3.42859C15.5355 3.42859 14.9628 3.96579 14.9628 4.4987V7.42289C14.0246 7.48546 13.03 7.51908 12 7.51908C10.97 7.51908 9.97539 7.48546 9.03716 7.42289V4.4987C9.02476 3.90131 8.31593 3.42893 7.69537 3.42893C5.05694 3.42893 3.24364 4.27386 2.3518 4.81594ZM12 8.90462C14.9058 8.90462 17.5763 8.64409 19.5552 8.20463C20.0475 8.09532 20.5153 7.97102 20.9439 7.82969V16.9077C20.9439 17.5217 20.6172 18.1025 20.0308 18.2849C19.6863 18.392 19.3323 18.4721 18.991 18.5478C17.2472 18.9351 14.7748 19.1859 12 19.1859C9.2252 19.1859 6.75282 18.9351 5.00901 18.5478C4.6677 18.4721 4.31371 18.392 3.96914 18.2849C3.3828 18.1025 3.05607 17.5217 3.05607 16.9077V7.82969C3.48474 7.97102 3.95255 8.09532 4.44479 8.20463C6.42368 8.64409 9.09415 8.90462 12 8.90462ZM3.05449 6.24048C3.04682 5.90403 3.04028 5.61697 3.79428 5.35974C4.62354 5.07684 5.82924 4.8241 7.31546 4.6448C7.51802 4.62036 7.69537 4.77939 7.69537 4.98342V7.30777C7.43723 7.28145 7.15446 7.24963 6.85638 7.21141L6.76506 7.19971C5.51568 7.03974 4.21973 6.8738 3.05607 6.34497C3.05607 6.30961 3.05527 6.27479 3.05449 6.24048ZM20.2057 5.35974C20.9439 5.61158 20.9439 5.94565 20.9439 6.34497C20.2606 6.81812 18.6807 7.01737 17.4364 7.17429C17.3364 7.1869 17.2386 7.19923 17.1436 7.21141C16.8455 7.24963 16.5628 7.28145 16.3046 7.30777V4.98342C16.3046 4.77939 16.482 4.62036 16.6845 4.6448C16.6845 4.6448 17.7655 4.7494 18.4531 4.889C19.1406 5.0286 20.2057 5.35974 20.2057 5.35974Z" fill="#65676E"/>
</svg>
