<svg width="25" height="24" viewBox="0 0 25 24" fill="none" xmlns="http://www.w3.org/2000/svg">
<path d="M9.85992 20.5943V17.599C9.85992 16.8344 10.4843 16.2145 11.2545 16.2145H14.07C14.4399 16.2145 14.7946 16.3604 15.0562 16.62C15.3177 16.8797 15.4646 17.2318 15.4646 17.599V20.5943C15.4623 20.9122 15.5879 21.2179 15.8135 21.4435C16.0391 21.6691 16.3461 21.7959 16.6663 21.7959H18.5871C19.4843 21.7982 20.3454 21.4461 20.9806 20.8171C21.6158 20.1882 21.9728 19.3342 21.9728 18.4436V9.91041C21.9728 9.191 21.6515 8.5086 21.0957 8.04704L14.5612 2.86618C13.4245 1.95779 11.7959 1.98712 10.6932 2.93584L4.30783 8.04704C3.72568 8.49499 3.37774 9.17942 3.36055 9.91041V18.4349C3.36055 20.2911 4.87635 21.7959 6.74619 21.7959H8.6232C9.28828 21.7959 9.82879 21.2632 9.83361 20.603L9.85992 20.5943Z" fill="#4A6FF4"/>
</svg>
